<?xml version="1.0" standalone="no"?><!DOCTYPE svg PUBLIC "-//W3C//DTD SVG 1.1//EN" "http://www.w3.org/Graphics/SVG/1.1/DTD/svg11.dtd"><svg t="1703236196852" class="icon" viewBox="0 0 1024 1024" version="1.1" xmlns="http://www.w3.org/2000/svg" p-id="7291" xmlns:xlink="http://www.w3.org/1999/xlink" width="200" height="200"><path d="M102.4 896a409.6 51.2 0 1 0 819.2 0 409.6 51.2 0 1 0-819.2 0Z" fill="#0ec69a" opacity=".1" p-id="7292"></path><path d="M709.12 139.264v5.632l42.496 39.424 163.84-79.36L767.488 199.68v46.592l23.552-23.04v-0.512l0.512 0.512 23.552 23.04L942.08 91.136v-5.12z" fill="#0ec69a" opacity=".2" p-id="7293"></path><path d="M121.856 806.912c0 8.704 6.656 15.36 15.36 15.36s15.36-6.656 15.36-15.36-6.656-15.36-15.36-15.36c-8.192 0-15.36 7.168-15.36 15.36zM926.72 847.872c-15.36 4.096-18.944 7.168-23.04 23.04-4.096-15.36-7.168-18.944-23.04-23.04 15.36-4.096 18.944-7.68 23.04-23.04 4.096 15.36 7.168 18.944 23.04 23.04zM903.68 788.992c-25.088 6.656-30.208 11.776-36.864 36.864-6.656-25.088-11.776-30.208-36.864-36.864 25.088-6.656 30.208-12.288 36.864-36.864 6.144 25.088 11.776 30.208 36.864 36.864zM207.36 275.968c-15.36 4.096-18.432 7.168-22.528 22.528-4.096-15.36-7.168-18.432-22.528-22.528 15.36-4.096 18.432-7.168 22.528-22.528 3.584 15.36 7.168 18.432 22.528 22.528zM268.288 197.12c-39.936 10.24-48.128 18.944-58.88 58.88-10.24-39.936-18.944-48.128-58.88-58.88 39.936-10.24 48.128-18.944 58.88-58.88 10.24 39.424 18.944 48.128 58.88 58.88zM512 517.632c-2.56 0-5.12-0.512-7.68-2.048l-260.096-148.48c-4.608-2.56-7.68-7.68-7.68-13.312s3.072-10.752 7.68-13.312l260.096-148.48c4.608-2.56 10.752-2.56 15.36 0l260.096 148.48c4.608 2.56 7.68 7.68 7.68 13.312s-3.072 10.752-7.68 13.312l-260.096 148.48c-2.56 1.536-5.12 2.048-7.68 2.048zM282.624 353.28L512 484.352 741.376 353.28 512 222.72 282.624 353.28zM473.088 886.784c-2.56 0-5.12-0.512-7.68-2.048l-259.072-151.04c-4.608-2.56-7.68-7.68-7.68-13.312l-1.536-299.52c0-5.632 3.072-10.752 7.68-13.312s10.752-2.56 15.36 0l259.072 151.04c4.608 2.56 7.68 7.68 7.68 13.312l1.536 299.52c0 5.632-3.072 10.752-7.68 13.312-2.56 1.536-5.12 2.048-7.68 2.048zM229.376 711.68l228.352 133.12-1.024-264.192-228.352-133.12 1.024 264.192zM550.912 886.784c-2.56 0-5.12-0.512-7.68-2.048-4.608-2.56-7.68-7.68-7.68-13.312l1.536-299.52c0-5.632 3.072-10.24 7.68-13.312L803.84 407.552c4.608-2.56 10.752-2.56 15.36 0 4.608 2.56 7.68 7.68 7.68 13.312l-1.536 299.52c0 5.632-3.072 10.24-7.68 13.312l-259.072 151.04c-2.56 1.536-5.12 2.048-7.68 2.048z m16.384-306.176l-1.024 264.192 228.352-133.12 1.024-264.192-228.352 133.12z" fill="#0ec69a" opacity=".5" p-id="7294"></path><path d="M269.824 688.64l-1.024-170.496L416.256 604.16l0.512 169.984zM607.744 604.16l147.456-86.016-1.024 170.496-146.944 85.504zM364.032 353.28L512 268.8 659.968 353.28 512 437.76z" fill="#0ec69a" opacity=".2" p-id="7295"></path></svg>